<?xml version="1.0" standalone="no"?>
<!DOCTYPE svg PUBLIC "-//W3C//DTD SVG 20010904//EN"
 "http://www.w3.org/TR/2001/REC-SVG-20010904/DTD/svg10.dtd">
<svg version="1.0" xmlns="http://www.w3.org/2000/svg"
 width="324.000000pt" height="52.000000pt" viewBox="0 0 324.000000 52.000000"
 preserveAspectRatio="xMidYMid meet">

<g transform="translate(0.000000,52.000000) scale(0.100000,-0.100000)"
fill="#000000" stroke="none">
<path d="M2008 444 c-73 -61 -80 -77 -72 -166 5 -68 4 -78 -10 -78 -12 0 -16
10 -16 40 0 31 -5 43 -26 56 -19 13 -28 14 -37 5 -6 -6 -20 -11 -32 -11 -12 0
-26 -5 -33 -12 -9 -9 -12 -9 -12 0 0 15 -131 17 -147 1 -8 -8 -13 -8 -17 0
-10 15 -109 14 -124 -1 -9 -9 -12 -9 -12 0 0 7 -13 12 -30 12 -29 0 -30 -2
-30 -45 0 -33 -4 -45 -14 -45 -10 0 -16 13 -18 41 -2 32 -9 44 -31 57 -26 15
-29 16 -37 1 -7 -12 -21 -15 -65 -11 -36 3 -65 0 -81 -8 -19 -11 -27 -11 -36
-2 -7 7 -33 12 -58 12 -68 0 -90 -24 -90 -101 0 -42 4 -61 14 -65 19 -7 56 13
56 31 0 19 26 19 33 1 5 -12 38 -14 191 -13 143 2 186 -1 186 -10 0 -8 -13
-13 -29 -13 -16 0 -36 -6 -43 -13 -7 -7 -32 -21 -55 -31 -46 -20 -62 -54 -20
-42 52 15 77 18 77 9 0 -11 277 -10 302 1 9 4 33 3 52 -4 20 -6 40 -8 46 -5
18 11 -8 34 -51 47 -22 6 -39 15 -39 19 0 4 -10 11 -22 15 -20 6 -20 8 -5 19
9 7 17 20 17 29 0 9 8 16 20 16 13 0 20 -7 20 -20 0 -14 7 -20 23 -20 13 0 28
-5 35 -12 9 -9 18 -8 39 2 20 9 71 12 172 11 122 -1 147 1 162 15 21 19 24 45
8 61 -8 8 -7 17 5 34 22 32 21 100 -2 130 -10 13 -21 32 -25 41 -7 19 -64 58
-84 58 -6 0 -31 -16 -55 -36z m114 -45 c-2 -13 -3 -41 -2 -61 0 -21 -4 -38
-10 -38 -6 0 -10 8 -9 18 2 28 0 42 -8 40 -5 -1 -18 4 -31 11 -24 13 -25 36
-2 36 7 0 15 7 17 15 4 13 3 13 -6 0 -6 -8 -11 -10 -11 -4 0 5 5 15 12 22 18
18 54 -10 50 -39z m-117 -69 c0 -8 -8 -16 -17 -18 -13 -2 -18 3 -18 18 0 15 5
20 18 18 9 -2 17 -10 17 -18z m55 -24 c0 -9 -7 -12 -20 -9 -11 3 -20 9 -20 14
0 5 9 9 20 9 11 0 20 -6 20 -14z m-231 -152 c-18 -22 -29 -17 -29 15 0 16 6
31 15 35 8 3 16 18 17 33 1 15 3 6 5 -20 3 -28 -1 -55 -8 -63z m-692 46 c2
-34 -1 -40 -18 -40 -10 0 -19 7 -19 15 0 23 -57 20 -65 -4 -8 -26 -35 -36 -35
-13 0 31 24 50 67 54 26 2 40 0 37 -7 -3 -5 3 0 13 12 10 12 18 22 18 23 1 0
1 -18 2 -40z m851 -26 c-18 -18 -92 -21 -112 -5 -17 14 -23 46 -6 36 6 -3 10
-1 10 6 0 7 3 9 8 5 4 -4 7 -13 7 -19 0 -7 12 -13 27 -15 27 -3 66 25 69 51 1
6 4 -1 6 -17 3 -16 -1 -34 -9 -42z m-740 39 c2 -8 -5 -13 -17 -13 -12 0 -21 6
-21 16 0 18 31 15 38 -3z m141 -33 c18 0 34 8 44 23 19 28 34 15 19 -18 -10
-22 -18 -25 -61 -25 -57 0 -69 11 -50 48 l14 26 3 -27 c3 -22 8 -27 31 -27z
m-166 0 c18 0 40 9 54 22 l24 22 -3 -32 -2 -32 -62 0 c-66 0 -88 17 -62 48 11
13 13 13 16 -6 3 -17 10 -22 35 -22z m359 25 c-3 -5 1 -4 10 2 18 16 28 7 28
-24 0 -16 -6 -23 -20 -23 -11 0 -20 7 -20 15 0 23 -57 20 -65 -4 -3 -11 -13
-22 -21 -25 -12 -5 -15 1 -12 27 2 19 8 31 16 30 6 -2 12 0 12 5 0 4 18 7 39
7 23 0 37 -4 33 -10z m93 -2 c-2 -10 -4 -25 -4 -34 -1 -9 -8 -19 -16 -23 -12
-4 -15 3 -15 32 0 24 3 32 9 24 7 -11 9 -11 14 2 8 21 16 20 12 -1z m55 1 c0
-2 -9 -4 -20 -4 -11 0 -20 4 -20 9 0 5 9 7 20 4 11 -3 20 -7 20 -9z m425 -15
c0 -20 -6 -25 -35 -29 -46 -7 -101 0 -94 11 3 5 25 9 48 9 42 0 73 19 58 35
-4 4 0 6 8 3 8 -3 15 -16 15 -29z m-381 5 c9 -24 7 -34 -8 -34 -16 0 -29 27
-20 41 8 14 21 11 28 -7z m-211 -38 c3 -8 18 -16 34 -19 16 -2 7 -5 -24 -6
-47 -1 -51 1 -46 19 6 23 28 27 36 6z m-106 -68 c-3 -8 -6 -5 -6 6 -1 11 2 17
5 13 3 -3 4 -12 1 -19z m43 -3 c0 -32 -6 -32 -12 0 -3 14 -1 25 3 25 5 0 9
-11 9 -25z m48 4 c19 -30 8 -34 -12 -4 -9 14 -13 25 -9 25 5 0 14 -9 21 -21z
m39 -11 c-3 -7 -5 -2 -5 12 0 14 2 19 5 13 2 -7 2 -19 0 -25z m-170 -15 c-3
-10 -5 -4 -5 12 0 17 2 24 5 18 2 -7 2 -21 0 -30z m217 21 c3 -8 2 -12 -4 -9
-6 3 -10 10 -10 16 0 14 7 11 14 -7z"/>
<path d="M1260 422 c-5 -2 -10 -24 -10 -48 0 -37 3 -44 20 -44 11 0 20 6 20
13 0 9 2 9 8 0 11 -18 131 -21 141 -4 7 10 10 10 13 1 3 -9 32 -12 98 -11 136
3 135 3 196 1 34 -1 60 3 64 10 5 9 9 9 14 1 4 -6 16 -11 27 -11 16 0 19 7 19
39 0 22 -5 43 -12 47 -11 7 -577 12 -598 6z m69 -49 c-1 -21 -3 -30 -6 -20 -2
9 -13 17 -23 17 -11 0 -24 -8 -29 -17 -9 -15 -10 -13 -11 13 0 38 6 44 42 44
26 0 28 -3 27 -37z m71 28 c0 -4 -11 -6 -25 -3 -22 4 -25 1 -25 -23 0 -24 3
-27 25 -23 14 3 25 1 25 -3 0 -5 -13 -9 -30 -9 -28 0 -30 3 -30 35 0 32 2 35
30 35 17 0 30 -4 30 -9z m79 -28 c-1 -21 -3 -30 -6 -20 -3 10 -14 17 -28 17
-14 0 -25 -7 -28 -17 -3 -10 -5 -4 -6 13 -1 38 5 44 41 44 26 0 28 -3 27 -37z
m71 2 c0 -32 -2 -35 -30 -35 -28 0 -30 3 -30 35 0 32 2 35 30 35 28 0 30 -3
30 -35z m58 28 c-16 -2 -28 -9 -28 -14 0 -5 12 -10 28 -10 l27 -2 -27 -4 c-16
-2 -28 -8 -28 -13 0 -5 12 -11 28 -13 22 -3 20 -4 -10 -6 -37 -1 -38 0 -38 34
0 34 1 35 38 34 30 -2 32 -3 10 -6z m91 -30 l-2 -38 -7 35 c-5 23 -8 28 -9 13
0 -13 -5 -23 -11 -23 -5 0 -11 10 -11 23 -1 15 -4 10 -9 -13 l-7 -35 -2 38
c-1 35 1 37 29 37 28 0 30 -2 29 -37z m69 30 c-11 -3 -18 -14 -18 -28 0 -14 7
-25 18 -28 9 -3 -1 -5 -23 -6 -32 0 -36 2 -22 10 9 5 17 18 17 29 0 10 -8 21
-17 23 -10 3 0 5 22 5 22 0 32 -2 23 -5z m81 -30 c-1 -21 -3 -30 -6 -20 -2 9
-13 17 -23 17 -10 0 -21 -8 -23 -17 -3 -10 -5 -1 -6 20 -1 35 1 37 29 37 28 0
30 -2 29 -37z"/>
<path d="M1280 390 c0 -5 9 -10 20 -10 11 0 20 5 20 10 0 6 -9 10 -20 10 -11
0 -20 -4 -20 -10z"/>
<path d="M1425 390 c3 -5 15 -10 26 -10 10 0 19 5 19 10 0 6 -12 10 -26 10
-14 0 -23 -4 -19 -10z"/>
<path d="M1500 375 c0 -18 5 -25 20 -25 15 0 20 7 20 25 0 18 -5 25 -20 25
-15 0 -20 -7 -20 -25z"/>
<path d="M1800 390 c0 -5 9 -10 20 -10 11 0 20 5 20 10 0 6 -9 10 -20 10 -11
0 -20 -4 -20 -10z"/>
</g>
</svg>
